<svg width="84" height="143" viewBox="0 0 84 143" fill="none" xmlns="http://www.w3.org/2000/svg">
<path d="M41.7064 73.9063C62.0639 73.9063 78.6596 57.3106 78.6596 36.9531C78.6596 16.5957 62.0639 0 41.7064 0C21.1277 0 4.53201 16.5957 4.53201 36.9531C4.53201 57.3106 21.1277 73.9063 41.7064 73.9063ZM41.7064 21.6851C50.1149 21.6851 56.9745 28.5446 56.9745 36.9531C56.9745 45.3616 50.1149 52.2212 41.7064 52.2212C33.2979 52.2212 26.4384 45.3616 26.4384 36.9531C26.2171 28.5446 33.0767 21.6851 41.7064 21.6851Z" fill="#FF8800"/>
<path d="M56.5321 104.221C64.0555 102.451 71.3576 99.5745 77.9959 95.3702C83.0852 92.2724 84.6342 85.4128 81.315 80.3235C78.2172 75.2341 71.3576 73.6852 66.2683 77.0043C51.2215 86.5192 31.5279 86.5192 16.4811 77.0043C11.3918 73.9064 4.75348 75.2341 1.43434 80.3235C-1.44225 85.4128 0.106681 92.0511 5.19603 95.149C11.8343 99.3532 19.1364 102.23 26.6598 104L6.08114 124.579C1.87689 128.783 1.87689 135.643 6.08114 139.847C8.2939 142.06 10.9492 142.945 13.8258 142.945C16.7024 142.945 19.3577 141.838 21.5705 139.847L41.9279 119.489L62.2853 139.847C66.4895 144.051 73.3491 144.051 77.5533 139.847C81.7576 135.643 81.7576 128.783 77.5533 124.579L56.5321 104.221Z" fill="#FF8800"/>
</svg>
